<svg width="14" height="15" viewBox="0 0 14 15" fill="none" xmlns="http://www.w3.org/2000/svg">
<path d="M8.41749 11.4783C8.30665 11.4783 8.19582 11.4375 8.10832 11.35C7.93915 11.1808 7.93915 10.9008 8.10832 10.7317L11.34 7.50001L8.10832 4.26834C7.93915 4.09917 7.93915 3.81917 8.10832 3.65001C8.27749 3.48084 8.55749 3.48084 8.72665 3.65001L12.2675 7.19084C12.4367 7.36001 12.4367 7.64001 12.2675 7.80917L8.72665 11.35C8.63915 11.4375 8.52832 11.4783 8.41749 11.4783Z" fill="white"/>
<path d="M11.8592 7.9375H2.04175C1.80258 7.9375 1.60425 7.73917 1.60425 7.5C1.60425 7.26083 1.80258 7.0625 2.04175 7.0625H11.8592C12.0984 7.0625 12.2967 7.26083 12.2967 7.5C12.2967 7.73917 12.0984 7.9375 11.8592 7.9375Z" fill="white"/>
</svg>
