<svg width="50" height="50" viewBox="0 0 50 50" fill="none" xmlns="http://www.w3.org/2000/svg">
<circle cx="25" cy="25" r="25" fill="#F4F6FE"/>
<path d="M21.6524 34.3925C21.4466 34.3925 21.2408 34.3167 21.0783 34.1542C20.7641 33.84 20.7641 33.32 21.0783 33.0058L28.1416 25.9425C28.6616 25.4225 28.6616 24.5775 28.1416 24.0575L21.0783 16.9942C20.7641 16.68 20.7641 16.16 21.0783 15.8458C21.3924 15.5317 21.9124 15.5317 22.2266 15.8458L29.2899 22.9092C29.8424 23.4617 30.1566 24.2092 30.1566 25C30.1566 25.7908 29.8533 26.5383 29.2899 27.0908L22.2266 34.1542C22.0641 34.3058 21.8583 34.3925 21.6524 34.3925Z" fill="#1A2630"/>
</svg>
