<svg width="36" height="36" viewBox="0 0 36 36" fill="none" xmlns="http://www.w3.org/2000/svg">
<rect width="36" height="36" rx="4" fill="#E9F4FF"/>
<path d="M19.2698 29.25H16.7498C16.0498 29.25 15.4198 28.9499 14.9998 28.4399C14.6298 27.9799 14.4898 27.39 14.6198 26.83L15.0298 25.02C15.1098 24.68 15.4098 24.4399 15.7598 24.4399H20.2598C20.6098 24.4399 20.9098 24.68 20.9898 25.02L21.3998 26.83C21.5298 27.43 21.4098 28.01 21.0398 28.47C20.6298 28.96 19.9898 29.25 19.2698 29.25ZM16.3598 25.92L16.0798 27.15C16.0498 27.3 16.1098 27.42 16.1698 27.49C16.2998 27.65 16.5098 27.74 16.7498 27.74H19.2698C19.5298 27.74 19.7498 27.66 19.8698 27.51C19.9498 27.41 19.9698 27.29 19.9398 27.14L19.6598 25.91H16.3598V25.92Z" fill="#1A2630"/>
<path d="M20.26 25.92C20.05 25.92 19.85 25.84 19.7 25.67C19.43 25.36 19.45 24.89 19.76 24.61L21.49 23.0699C22.18 22.4599 22.15 22.31 21.64 21.67L18.59 17.8C18.42 17.59 18.22 17.47 18.01 17.47C17.8 17.47 17.6 17.59 17.43 17.8L14.38 21.67C13.84 22.36 13.85 22.51 14.51 23.05L16.26 24.61C16.57 24.88 16.6 25.36 16.32 25.67C16.04 25.98 15.57 26.01 15.26 25.73L13.53 24.1899C12.27 23.1599 12.16 22.06 13.2 20.74L16.25 16.87C16.7 16.3 17.34 15.97 18.01 15.97C18.68 15.97 19.32 16.3 19.77 16.87L22.82 20.74C23.85 22.04 23.75 23.0799 22.49 24.1899L20.76 25.73C20.61 25.86 20.43 25.92 20.26 25.92Z" fill="#1A2630"/>
<path d="M18.0098 20.4C17.5998 20.4 17.2598 20.06 17.2598 19.65V17.12C17.2598 16.71 17.5998 16.37 18.0098 16.37C18.4198 16.37 18.7598 16.71 18.7598 17.12V19.65C18.7598 20.07 18.4198 20.4 18.0098 20.4Z" fill="#1A2630"/>
<path d="M18.52 11.75H17.52C16.56 11.75 15.77 10.96 15.77 10V9C15.77 8.04 16.56 7.25 17.52 7.25H18.52C19.48 7.25 20.27 8.04 20.27 9V10C20.27 10.96 19.49 11.75 18.52 11.75ZM17.52 8.75C17.38 8.75 17.27 8.86 17.27 9V10C17.27 10.14 17.38 10.25 17.52 10.25H18.52C18.66 10.25 18.77 10.14 18.77 10V9C18.77 8.86 18.66 8.75 18.52 8.75H17.52Z" fill="#1A2630"/>
<path d="M10.27 20.92H9.27002C8.31002 20.92 7.52002 20.13 7.52002 19.17V18.17C7.52002 17.21 8.31002 16.4199 9.27002 16.4199H10.27C11.23 16.4199 12.02 17.21 12.02 18.17V19.17C12.02 20.13 11.23 20.92 10.27 20.92ZM9.27002 17.9199C9.13002 17.9199 9.02002 18.03 9.02002 18.17V19.17C9.02002 19.31 9.13002 19.42 9.27002 19.42H10.27C10.41 19.42 10.52 19.31 10.52 19.17V18.17C10.52 18.03 10.41 17.9199 10.27 17.9199H9.27002Z" fill="#1A2630"/>
<path d="M26.73 20.92H25.73C24.77 20.92 23.98 20.13 23.98 19.17V18.17C23.98 17.21 24.77 16.4199 25.73 16.4199H26.73C27.69 16.4199 28.48 17.21 28.48 18.17V19.17C28.48 20.13 27.7 20.92 26.73 20.92ZM25.73 17.9199C25.59 17.9199 25.48 18.03 25.48 18.17V19.17C25.48 19.31 25.59 19.42 25.73 19.42H26.73C26.87 19.42 26.98 19.31 26.98 19.17V18.17C26.98 18.03 26.87 17.9199 26.73 17.9199H25.73Z" fill="#1A2630"/>
<path d="M9.75 17.9201C9.34 17.9201 9 17.5801 9 17.1701C9 12.9001 12.2 9.31008 16.44 8.81008C16.85 8.77008 17.22 9.06005 17.27 9.47005C17.32 9.88005 17.02 10.2501 16.61 10.3001C13.13 10.7101 10.5 13.6601 10.5 17.1701C10.5 17.5801 10.16 17.9201 9.75 17.9201Z" fill="#1A2630"/>
<path d="M26.25 17.92C25.84 17.92 25.5 17.58 25.5 17.17C25.5 13.68 22.89 10.73 19.43 10.31C19.02 10.26 18.73 9.89 18.78 9.48C18.83 9.07 19.2 8.77004 19.62 8.83004C23.83 9.34004 27.01 12.93 27.01 17.18C27 17.58 26.67 17.92 26.25 17.92Z" fill="#1A2630"/>
</svg>
