<svg width="36" height="36" viewBox="0 0 36 36" fill="none" xmlns="http://www.w3.org/2000/svg">
<rect width="36" height="36" rx="4" fill="#E9F4FF"/>
<path d="M20.6699 27.65H10.2199C9.11992 27.65 8.14994 27.08 7.61994 26.12C7.08994 25.16 7.11996 24.03 7.69996 23.1L10.4699 18.67C10.6899 18.32 10.6899 17.67 10.4699 17.33L7.69996 12.9C7.11996 11.97 7.08994 10.84 7.61994 9.87998C8.14994 8.91998 9.12992 8.34998 10.2199 8.34998H21.6599C22.5999 8.34998 23.6899 8.94998 24.1799 9.74998L28.3599 16.43C28.9199 17.33 28.8699 18.71 28.2299 19.56L23.0499 26.46C22.5399 27.14 21.5199 27.65 20.6699 27.65ZM10.2199 9.84998C9.67992 9.84998 9.18994 10.13 8.92994 10.61C8.66994 11.09 8.67992 11.65 8.96992 12.11L11.7399 16.54C12.2599 17.38 12.2599 18.64 11.7399 19.48L8.96992 23.91C8.67992 24.37 8.66994 24.93 8.92994 25.41C9.18994 25.89 9.67992 26.17 10.2199 26.17H20.6699C21.0499 26.17 21.6199 25.88 21.8499 25.58L27.03 18.68C27.3 18.32 27.33 17.63 27.09 17.25L22.9099 10.57C22.6899 10.21 22.0799 9.87998 21.6599 9.87998H10.2199V9.84998Z" fill="#1A2630"/>
</svg>
