<svg width="36" height="36" viewBox="0 0 36 36" fill="none" xmlns="http://www.w3.org/2000/svg">
<rect width="36" height="36" rx="4" fill="#E9F4FF"/>
<path d="M18 27.25H13C9.35 27.25 7.25 25.15 7.25 21.5V14.5C7.25 10.85 9.35 8.75 13 8.75H23C26.65 8.75 28.75 10.85 28.75 14.5V17.5C28.75 17.91 28.41 18.25 28 18.25C27.59 18.25 27.25 17.91 27.25 17.5V14.5C27.25 11.64 25.86 10.25 23 10.25H13C10.14 10.25 8.75 11.64 8.75 14.5V21.5C8.75 24.36 10.14 25.75 13 25.75H18C18.41 25.75 18.75 26.09 18.75 26.5C18.75 26.91 18.41 27.25 18 27.25Z" fill="#1A2630"/>
<path d="M17.9998 18.87C17.1598 18.87 16.3098 18.61 15.6598 18.08L12.5298 15.58C12.2098 15.32 12.1498 14.85 12.4098 14.53C12.6698 14.21 13.1398 14.16 13.4598 14.41L16.5898 16.91C17.3498 17.52 18.6398 17.52 19.3998 16.91L22.5298 14.41C22.8498 14.15 23.3198 14.2 23.5798 14.53C23.8398 14.85 23.7898 15.33 23.4598 15.58L20.3298 18.08C19.6898 18.61 18.8398 18.87 17.9998 18.87Z" fill="#1A2630"/>
<path d="M21.8201 27.78C21.4401 27.78 21.0801 27.64 20.8201 27.38C20.5101 27.07 20.3701 26.62 20.4401 26.15L20.6301 24.8C20.6801 24.45 20.8901 24.03 21.1401 23.78L24.68 20.24C25.16 19.76 25.6301 19.51 26.1401 19.46C26.7601 19.4 27.38 19.66 27.96 20.24C28.54 20.82 28.8 21.43 28.74 22.06C28.69 22.56 28.43 23.04 27.96 23.52L24.4201 27.06C24.1701 27.31 23.75 27.52 23.4 27.57L22.05 27.76C21.97 27.77 21.9001 27.78 21.8201 27.78ZM26.31 20.95C26.3 20.95 26.29 20.95 26.28 20.95C26.14 20.96 25.95 21.09 25.74 21.3L22.2001 24.84C22.1701 24.87 22.12 24.97 22.12 25.01L21.9401 26.26L23.1901 26.08C23.2301 26.07 23.33 26.02 23.36 25.99L26.9 22.45C27.11 22.23 27.24 22.05 27.2501 21.91C27.2701 21.71 27.07 21.47 26.9 21.3C26.74 21.14 26.51 20.95 26.31 20.95Z" fill="#1A2630"/>
<path d="M26.9201 24.2499C26.8501 24.2499 26.7801 24.2399 26.7201 24.2199C25.4001 23.8499 24.3501 22.7999 23.9801 21.4799C23.8701 21.0799 24.1001 20.6699 24.5001 20.5499C24.9001 20.4399 25.3101 20.6699 25.4201 21.0699C25.6501 21.8899 26.3001 22.5399 27.1201 22.7699C27.5201 22.8799 27.7501 23.2999 27.6401 23.6999C27.5501 24.0299 27.2501 24.2499 26.9201 24.2499Z" fill="#1A2630"/>
</svg>
