<svg width="50" height="50" viewBox="0 0 50 50" fill="none" xmlns="http://www.w3.org/2000/svg">
<circle cx="25" cy="25" r="25" transform="matrix(-1 0 0 1 50 0)" fill="#F4F6FE"/>
<path d="M28.3476 34.3925C28.5534 34.3925 28.7592 34.3167 28.9217 34.1542C29.2359 33.84 29.2359 33.32 28.9217 33.0058L21.8584 25.9425C21.3384 25.4225 21.3384 24.5775 21.8584 24.0575L28.9217 16.9942C29.2359 16.68 29.2359 16.16 28.9217 15.8458C28.6076 15.5317 28.0876 15.5317 27.7734 15.8458L20.7101 22.9092C20.1576 23.4617 19.8434 24.2092 19.8434 25C19.8434 25.7908 20.1467 26.5383 20.7101 27.0908L27.7734 34.1542C27.9359 34.3058 28.1417 34.3925 28.3476 34.3925Z" fill="#1A2630"/>
</svg>
